<svg width="40" height="33" viewBox="0 0 40 33" fill="none" xmlns="http://www.w3.org/2000/svg">
<path d="M3.1125 26H0.675L7.725 6.8H10.125L17.175 26H14.7375L9 9.8375H8.85L3.1125 26ZM4.0125 18.5H13.8375V20.5625H4.0125V18.5Z" fill="#3D6E7C"/>
<path d="M18.4149 26V9.36H20.3324V15.5025H20.4949C20.6357 15.2858 20.8307 15.0096 21.0799 14.6737C21.3345 14.3325 21.6974 14.0292 22.1687 13.7638C22.6453 13.4929 23.2899 13.3575 24.1024 13.3575C25.1532 13.3575 26.0795 13.6202 26.8812 14.1456C27.6828 14.671 28.3084 15.4158 28.758 16.38C29.2076 17.3442 29.4324 18.4817 29.4324 19.7925C29.4324 21.1142 29.2076 22.2598 28.758 23.2294C28.3084 24.1935 27.6855 24.941 26.8893 25.4719C26.093 25.9973 25.1749 26.26 24.1349 26.26C23.3332 26.26 22.6914 26.1273 22.2093 25.8619C21.7272 25.591 21.3562 25.285 21.0962 24.9438C20.8362 24.5971 20.6357 24.31 20.4949 24.0825H20.2674V26H18.4149ZM20.2999 19.76C20.2999 20.7025 20.438 21.534 20.7143 22.2544C20.9905 22.9694 21.3941 23.53 21.9249 23.9362C22.4557 24.3371 23.1057 24.5375 23.8749 24.5375C24.6766 24.5375 25.3455 24.3263 25.8818 23.9038C26.4234 23.4758 26.8297 22.9017 27.1005 22.1812C27.3768 21.4554 27.5149 20.6483 27.5149 19.76C27.5149 18.8825 27.3795 18.0917 27.1087 17.3875C26.8432 16.6779 26.4397 16.1173 25.898 15.7056C25.3618 15.2885 24.6874 15.08 23.8749 15.08C23.0949 15.08 22.4395 15.2777 21.9087 15.6731C21.3778 16.0631 20.977 16.6102 20.7062 17.3144C20.4353 18.0131 20.2999 18.8283 20.2999 19.76Z" fill="#3D6E7C"/>
<path d="M34.25 26.2C33.35 26.2 32.575 25.9875 31.925 25.5625C31.275 25.1375 30.775 24.5521 30.425 23.8062C30.075 23.0604 29.9 22.2083 29.9 21.25C29.9 20.275 30.0792 19.4146 30.4375 18.6687C30.8 17.9187 31.3042 17.3333 31.95 16.9125C32.6 16.4875 33.3583 16.275 34.225 16.275C34.9 16.275 35.5083 16.4 36.05 16.65C36.5917 16.9 37.0354 17.25 37.3813 17.7C37.7271 18.15 37.9417 18.675 38.025 19.275H36.55C36.4375 18.8375 36.1875 18.45 35.8 18.1125C35.4167 17.7708 34.9 17.6 34.25 17.6C33.675 17.6 33.1708 17.75 32.7375 18.05C32.3083 18.3458 31.9729 18.7646 31.7313 19.3062C31.4938 19.8437 31.375 20.475 31.375 21.2C31.375 21.9417 31.4917 22.5875 31.725 23.1375C31.9625 23.6875 32.2958 24.1146 32.725 24.4187C33.1583 24.7229 33.6667 24.875 34.25 24.875C34.6333 24.875 34.9813 24.8083 35.2938 24.675C35.6063 24.5417 35.8708 24.35 36.0875 24.1C36.3042 23.85 36.4583 23.55 36.55 23.2H38.025C37.9417 23.7667 37.7354 24.2771 37.4063 24.7312C37.0813 25.1812 36.65 25.5396 36.1125 25.8062C35.5792 26.0688 34.9583 26.2 34.25 26.2Z" fill="#3D6E7C"/>
</svg>
