<svg width="64" height="67" viewBox="0 0 64 67" fill="none" xmlns="http://www.w3.org/2000/svg">
<path d="M46.3629 0.0113454C45.8211 0.160793 45.3378 0.552016 44.9987 1.11578C44.6595 1.67953 44.4863 2.37948 44.5096 3.09174V63.4917C44.4546 63.9238 44.4733 64.3662 44.5644 64.7881C44.6555 65.2101 44.8168 65.6015 45.0372 65.9352C45.2575 66.2689 45.5317 66.537 45.8406 66.7209C46.1495 66.9048 46.4859 67 46.8263 67C47.1666 67 47.503 66.9048 47.8119 66.7209C48.1208 66.537 48.395 66.2689 48.6153 65.9352C48.8357 65.6015 48.997 65.2101 49.0881 64.7881C49.1792 64.3662 49.1979 63.9238 49.1429 63.4917V3.09174C49.1507 2.66718 49.0888 2.24527 48.9613 1.85354C48.8338 1.46182 48.6435 1.10909 48.4029 0.818395C48.1622 0.527698 47.8766 0.305567 47.5647 0.166503C47.2528 0.0274388 46.9216 -0.0254312 46.5927 0.0113454C46.5162 0.00651885 46.4395 0.00651885 46.3629 0.0113454ZM16.7104 3.19029C16.1686 3.33974 15.6853 3.73096 15.3461 4.29472C15.007 4.85848 14.8337 5.55843 14.8571 6.27069V60.3128C14.8021 60.7449 14.8208 61.1873 14.9119 61.6092C15.003 62.0311 15.1643 62.4225 15.3847 62.7563C15.605 63.09 15.8792 63.3581 16.1881 63.542C16.497 63.7258 16.8334 63.8211 17.1737 63.8211C17.5141 63.8211 17.8504 63.7258 18.1594 63.542C18.4683 63.3581 18.7425 63.09 18.9628 62.7563C19.1832 62.4225 19.3445 62.0311 19.4356 61.6092C19.5267 61.1873 19.5454 60.7449 19.4903 60.3128V6.27069C19.4982 5.84613 19.4363 5.42421 19.3088 5.03249C19.1813 4.64076 18.991 4.28804 18.7504 3.99734C18.5097 3.70664 18.2241 3.48451 17.9122 3.34545C17.6003 3.20638 17.2691 3.15351 16.9402 3.19029C16.8637 3.18546 16.787 3.18546 16.7104 3.19029ZM38.9498 12.7271C38.408 12.8766 37.9247 13.2678 37.5855 13.8316C37.2463 14.3953 37.0731 15.0953 37.0965 15.8075V50.7759C37.0403 51.2086 37.058 51.6519 37.1485 52.0749C37.239 52.4979 37.4 52.8905 37.6203 53.2253C37.8407 53.5601 38.1151 53.8292 38.4245 54.0137C38.7339 54.1982 39.0709 54.2938 39.4119 54.2938C39.7529 54.2938 40.0898 54.1982 40.3992 54.0137C40.7086 53.8292 40.9831 53.5601 41.2034 53.2253C41.4238 52.8905 41.5848 52.4979 41.6753 52.0749C41.7657 51.6519 41.7835 51.2086 41.7273 50.7759V15.8075C41.735 15.3835 41.6733 14.9622 41.5461 14.571C41.4189 14.1797 41.229 13.8273 40.9889 13.5367C40.7488 13.2461 40.4638 13.0238 40.1525 12.8844C39.8412 12.7449 39.5106 12.6913 39.1821 12.7271C39.1039 12.7221 39.028 12.7221 38.9498 12.7271ZM9.2973 15.9061C8.75546 16.0555 8.2722 16.4467 7.93302 17.0105C7.59384 17.5743 7.42062 18.2742 7.44402 18.9865V47.597C7.38779 48.0297 7.40553 48.473 7.49599 48.896C7.58645 49.319 7.74747 49.7116 7.96784 50.0464C8.18821 50.3812 8.46264 50.6502 8.77203 50.8348C9.08143 51.0193 9.41836 51.1149 9.75938 51.1149C10.1004 51.1149 10.4373 51.0193 10.7467 50.8348C11.0561 50.6502 11.3306 50.3812 11.5509 50.0464C11.7713 49.7116 11.9323 49.319 12.0228 48.896C12.1132 48.473 12.131 48.0297 12.0747 47.597V18.9865C12.0825 18.5625 12.0208 18.1412 11.8936 17.7499C11.7664 17.3587 11.5765 17.0063 11.3364 16.7157C11.0963 16.4251 10.8113 16.2028 10.5 16.0633C10.1887 15.9238 9.85805 15.8702 9.52958 15.9061C9.45137 15.901 9.3755 15.901 9.2973 15.9061ZM24.1236 19.085C23.5817 19.2345 23.0985 19.6257 22.7593 20.1894C22.4201 20.7532 22.2469 21.4532 22.2703 22.1654V44.418C22.214 44.8508 22.2318 45.294 22.3222 45.717C22.4127 46.14 22.5737 46.5326 22.7941 46.8674C23.0145 47.2023 23.2889 47.4713 23.5983 47.6558C23.9077 47.8403 24.2446 47.9359 24.5856 47.9359C24.9267 47.9359 25.2636 47.8403 25.573 47.6558C25.8824 47.4713 26.1568 47.2023 26.3772 46.8674C26.5975 46.5326 26.7586 46.14 26.849 45.717C26.9395 45.294 26.9572 44.8508 26.901 44.418V22.1654C26.9088 21.7414 26.847 21.3201 26.7198 20.9289C26.5926 20.5376 26.4028 20.1852 26.1627 19.8946C25.9226 19.604 25.6376 19.3817 25.3263 19.2422C25.015 19.1028 24.6843 19.0492 24.3558 19.085C24.2776 19.08 24.2018 19.08 24.1236 19.085ZM53.7761 19.085C53.2342 19.2345 52.751 19.6257 52.4118 20.1894C52.0726 20.7532 51.8994 21.4532 51.9228 22.1654V44.418C51.8677 44.8502 51.8864 45.2925 51.9775 45.7145C52.0686 46.1364 52.2299 46.5278 52.4503 46.8615C52.6707 47.1953 52.9448 47.4634 53.2537 47.6472C53.5627 47.8311 53.899 47.9263 54.2394 47.9263C54.5798 47.9263 54.9161 47.8311 55.225 47.6472C55.5339 47.4634 55.8081 47.1953 56.0285 46.8615C56.2488 46.5278 56.4102 46.1364 56.5013 45.7145C56.5923 45.2925 56.611 44.8502 56.556 44.418V22.1654C56.5638 21.7409 56.502 21.3189 56.3745 20.9272C56.247 20.5355 56.0567 20.1828 55.816 19.8921C55.5754 19.6014 55.2898 19.3792 54.9779 19.2402C54.6659 19.1011 54.3347 19.0482 54.0059 19.085C53.9293 19.0802 53.8526 19.0802 53.7761 19.085ZM1.88417 25.4429C1.34234 25.5924 0.859068 25.9836 0.519889 26.5473C0.180711 27.1111 0.00749197 27.811 0.0308881 28.5233V38.0601C-0.0241481 38.4923 -0.00547548 38.9347 0.0856115 39.3566C0.176699 39.7785 0.338021 40.1699 0.558396 40.5037C0.77877 40.8374 1.05293 41.1055 1.36186 41.2893C1.67079 41.4732 2.0071 41.5684 2.34749 41.5684C2.68788 41.5684 3.02419 41.4732 3.33312 41.2893C3.64206 41.1055 3.91621 40.8374 4.13659 40.5037C4.35696 40.1699 4.51828 39.7785 4.60937 39.3566C4.70046 38.9347 4.71913 38.4923 4.66409 38.0601V28.5233C4.67193 28.0987 4.61009 27.6768 4.48258 27.2851C4.35508 26.8934 4.16479 26.5407 3.92413 26.25C3.68348 25.9593 3.39787 25.7371 3.08596 25.5981C2.77405 25.459 2.44285 25.4061 2.11398 25.4429C2.0366 25.438 1.95908 25.438 1.8817 25.4429H1.88417ZM31.5367 25.4429C30.9948 25.5924 30.5116 25.9836 30.1724 26.5473C29.8332 27.1111 29.66 27.811 29.6834 28.5233V38.0601C29.6272 38.4929 29.6449 38.9361 29.7354 39.3592C29.8258 39.7822 29.9869 40.1747 30.2072 40.5095C30.4276 40.8444 30.702 41.1134 31.0114 41.2979C31.3208 41.4825 31.6577 41.578 31.9988 41.578C32.3398 41.578 32.6767 41.4825 32.9861 41.2979C33.2955 41.1134 33.5699 40.8444 33.7903 40.5095C34.0107 40.1747 34.1717 39.7822 34.2622 39.3592C34.3526 38.9361 34.3704 38.4929 34.3141 38.0601V28.5233C34.3219 28.0993 34.2602 27.678 34.133 27.2867C34.0058 26.8955 33.8159 26.5431 33.5758 26.2525C33.3357 25.9619 33.0507 25.7396 32.7394 25.6001C32.4281 25.4607 32.0974 25.4071 31.769 25.4429C31.6908 25.4379 31.6149 25.4379 31.5367 25.4429ZM61.1892 25.4429C60.6474 25.5924 60.1641 25.9836 59.8249 26.5473C59.4857 27.1111 59.3125 27.811 59.3359 28.5233V38.0601C59.2809 38.4923 59.2995 38.9347 59.3906 39.3566C59.4817 39.7785 59.643 40.1699 59.8634 40.5037C60.0838 40.8374 60.3579 41.1055 60.6669 41.2893C60.9758 41.4732 61.3121 41.5684 61.6525 41.5684C61.9929 41.5684 62.3292 41.4732 62.6381 41.2893C62.9471 41.1055 63.2212 40.8374 63.4416 40.5037C63.662 40.1699 63.8233 39.7785 63.9144 39.3566C64.0055 38.9347 64.0241 38.4923 63.9691 38.0601V28.5233C63.9769 28.0987 63.9151 27.6768 63.7876 27.2851C63.6601 26.8934 63.4698 26.5407 63.2291 26.25C62.9885 25.9593 62.7029 25.7371 62.391 25.5981C62.0791 25.459 61.7479 25.4061 61.419 25.4429C61.3424 25.4381 61.2657 25.4381 61.1892 25.4429Z" fill="#F8F8F8"/>
</svg>
