<svg width="130" height="116" viewBox="0 0 130 116" fill="none" xmlns="http://www.w3.org/2000/svg">
<path fill-rule="evenodd" clip-rule="evenodd" d="M64.9999 10.875C63.9225 10.875 62.8892 11.2569 62.1273 11.9367C61.3654 12.6166 60.9374 13.5386 60.9374 14.5V68.9233C56.875 65.8483 51.7431 64.1256 46.4166 64.0489C41.0901 63.9723 35.8986 65.5463 31.7271 68.5029C27.5557 71.4594 24.6624 75.6154 23.5406 80.2623C22.4188 84.9092 23.1379 89.7595 25.5753 93.9863C28.0126 98.2131 32.0174 101.555 36.9069 103.442C41.7965 105.329 47.2681 105.644 52.389 104.334C57.51 103.024 61.9634 100.17 64.9899 96.2584C68.0165 92.3465 69.429 87.6191 68.9866 82.882C69.038 82.6463 69.0634 82.4068 69.0624 82.1667V37.4583H97.4999C101.451 37.4583 105.239 36.058 108.033 33.5653C110.826 31.0726 112.396 27.6918 112.396 24.1667C112.396 20.6415 110.826 17.2607 108.033 14.768C105.239 12.2754 101.451 10.875 97.4999 10.875H64.9999ZM69.0624 30.2083H97.4999C99.2957 30.2083 101.018 29.5718 102.288 28.4388C103.557 27.3057 104.271 25.769 104.271 24.1667C104.271 22.5643 103.557 21.0276 102.288 19.8946C101.018 18.7615 99.2957 18.125 97.4999 18.125H69.0624V30.2083ZM46.0416 71.2917C42.091 71.2917 38.3022 72.692 35.5086 75.1847C32.7151 77.6774 31.1458 81.0582 31.1458 84.5833C31.1458 88.1085 32.7151 91.4893 35.5086 93.982C38.3022 96.4746 42.091 97.875 46.0416 97.875C49.9922 97.875 53.781 96.4746 56.5745 93.982C59.368 91.4893 60.9374 88.1085 60.9374 84.5833C60.9374 81.0582 59.368 77.6774 56.5745 75.1847C53.781 72.692 49.9922 71.2917 46.0416 71.2917Z" fill="#F8F8F8"/>
</svg>
