<svg xmlns="http://www.w3.org/2000/svg" xmlns:xlink="http://www.w3.org/1999/xlink" version="1.1" width="1000" height="1000" viewBox="0 0 1000 1000" xml:space="preserve">
<defs>
</defs>
<rect x="0" y="0" width="100%" height="100%" fill="#3d6d7b"/>
<g transform="matrix(20.5843 0 0 20.5843 499.9992 499.9992)" id="103563" clip-path="url(#CLIPPATH_1)">
<clipPath id="CLIPPATH_1">
	<rect transform="matrix(1 0 0 1 0.0002 0.0009)" id="clip0_1065_2045" x="-26.5" y="-26.5" rx="0" ry="0" width="53" height="53"/>
</clipPath>
<path style="stroke: none; stroke-width: 1; stroke-dasharray: none; stroke-linecap: butt; stroke-dashoffset: 0; stroke-linejoin: miter; stroke-miterlimit: 4; is-custom-font: none; font-file-url: none; fill: rgb(204,171,115); fill-rule: nonzero; opacity: 0.8;" vector-effect="non-scaling-stroke" transform=" translate(-26.4998, -26.4991)" d="M 26.4998 41.9587 C 27.0407 41.9587 27.5628 42.1573 27.967 42.5167 C 28.3712 42.8762 28.6294 43.3714 28.6927 43.9086 L 28.7082 44.167 V 46.3753 C 28.7075 46.9382 28.492 47.4796 28.1056 47.8888 C 27.7192 48.2981 27.1911 48.5444 26.6292 48.5774 C 26.0674 48.6104 25.5141 48.4276 25.0825 48.0663 C 24.6508 47.7051 24.3734 47.1926 24.307 46.6337 L 24.2915 46.3753 V 44.167 C 24.2915 43.5813 24.5242 43.0196 24.9383 42.6055 C 25.3524 42.1913 25.9141 41.9587 26.4998 41.9587 Z M 40.441 37.3432 L 40.6486 37.5265 L 42.1945 39.0724 C 42.5905 39.4698 42.8205 40.003 42.8376 40.5638 C 42.8547 41.1246 42.6577 41.6709 42.2867 42.0918 C 41.9156 42.5126 41.3982 42.7764 40.8397 42.8296 C 40.2812 42.8828 39.7233 42.7214 39.2795 42.3782 L 39.0719 42.195 L 37.526 40.6491 C 37.145 40.2687 36.916 39.7622 36.8822 39.2248 C 36.8484 38.6874 37.0122 38.1561 37.3426 37.731 C 37.6731 37.3058 38.1475 37.0161 38.6766 36.9162 C 39.2057 36.8163 39.7531 36.9132 40.2158 37.1887 L 40.441 37.3432 Z M 15.4736 37.5265 C 15.8538 37.9068 16.0823 38.4127 16.116 38.9494 C 16.1497 39.4861 15.9865 40.0166 15.6569 40.4415 L 15.4736 40.6491 L 13.9278 42.195 C 13.5304 42.591 12.9971 42.821 12.4363 42.8381 C 11.8755 42.8552 11.3292 42.6582 10.9084 42.2871 C 10.4876 41.9161 10.2237 41.3987 10.1705 40.8402 C 10.1173 40.2817 10.2787 39.7238 10.6219 39.2799 L 10.8052 39.0724 L 12.351 37.5265 C 12.7652 37.1125 13.3268 36.88 13.9123 36.88 C 14.4979 36.88 15.0595 37.1125 15.4736 37.5265 Z M 8.83317 24.292 C 9.39602 24.2926 9.9374 24.5081 10.3467 24.8945 C 10.756 25.2809 11.0023 25.809 11.0353 26.3709 C 11.0682 26.9328 10.8854 27.4861 10.5242 27.9177 C 10.1629 28.3493 9.65046 28.6267 9.09154 28.6932 L 8.83317 28.7087 H 6.62483 C 6.06197 28.708 5.52059 28.4925 5.11131 28.1061 C 4.70203 27.7197 4.45573 27.1916 4.42274 26.6297 C 4.38976 26.0679 4.57257 25.5146 4.93383 25.0829 C 5.2951 24.6513 5.80754 24.3739 6.36646 24.3074 L 6.62483 24.292 H 8.83317 Z M 46.3748 24.292 C 46.9377 24.2926 47.4791 24.5081 47.8884 24.8945 C 48.2976 25.2809 48.5439 25.809 48.5769 26.3709 C 48.6099 26.9328 48.4271 27.4861 48.0658 27.9177 C 47.7046 28.3493 47.1921 28.6267 46.6332 28.6932 L 46.3748 28.7087 H 44.1665 C 43.6036 28.708 43.0623 28.4925 42.653 28.1061 C 42.2437 27.7197 41.9974 27.1916 41.9644 26.6297 C 41.9314 26.0679 42.1142 25.5146 42.4755 25.0829 C 42.8368 24.6513 43.3492 24.3739 43.9081 24.3074 L 44.1665 24.292 H 46.3748 Z M 13.7202 10.6224 L 13.9278 10.8057 L 15.4736 12.3515 C 15.8697 12.7489 16.0996 13.2822 16.1168 13.843 C 16.1339 14.4038 15.9369 14.9501 15.5658 15.3709 C 15.1948 15.7918 14.6774 16.0556 14.1189 16.1088 C 13.5603 16.162 13.0025 16.0006 12.5586 15.6574 L 12.351 15.4741 L 10.8052 13.9283 C 10.4256 13.5477 10.1978 13.0418 10.1645 12.5053 C 10.1312 11.9688 10.2948 11.4386 10.6245 11.0141 C 10.9542 10.5895 11.4274 10.2998 11.9555 10.1993 C 12.4835 10.0987 13.0301 10.1942 13.4927 10.4678 L 13.7202 10.6224 Z M 42.1945 10.8057 C 42.5747 11.186 42.8031 11.6919 42.8368 12.2286 C 42.8706 12.7653 42.7073 13.2958 42.3777 13.7207 L 42.1945 13.9283 L 40.6486 15.4741 C 40.2512 15.8702 39.718 16.1001 39.1572 16.1172 C 38.5963 16.1344 38.05 15.9374 37.6292 15.5663 C 37.2084 15.1952 36.9446 14.6779 36.8914 14.1194 C 36.8382 13.5608 36.9995 13.003 37.3427 12.5591 L 37.526 12.3515 L 39.0719 10.8057 C 39.486 10.3917 40.0476 10.1591 40.6332 10.1591 C 41.2187 10.1591 41.7803 10.3917 42.1945 10.8057 Z M 26.4998 4.41699 C 27.0407 4.41706 27.5628 4.61565 27.967 4.97507 C 28.3712 5.3345 28.6294 5.82977 28.6927 6.36695 L 28.7082 6.62533 V 8.83366 C 28.7075 9.39652 28.492 9.9379 28.1056 10.3472 C 27.7192 10.7565 27.1911 11.0028 26.6292 11.0357 C 26.0674 11.0687 25.5141 10.8859 25.0825 10.5247 C 24.6508 10.1634 24.3734 9.65095 24.307 9.09203 L 24.2915 8.83366 V 6.62533 C 24.2915 6.03964 24.5242 5.47794 24.9383 5.0638 C 25.3524 4.64966 25.9141 4.41699 26.4998 4.41699 Z M 26.4998 15.4587 C 28.6633 15.4585 30.7791 16.094 32.5845 17.2861 C 34.3899 18.4781 35.8053 20.1743 36.655 22.164 C 37.5046 24.1536 37.7511 26.349 37.3637 28.4775 C 36.9763 30.606 35.9721 32.5737 34.476 34.1364 C 32.9798 35.6991 31.0575 36.7878 28.9478 37.2673 C 26.8382 37.7469 24.6342 37.5961 22.6095 36.8337 C 20.5848 36.0713 18.8287 34.7309 17.5593 32.9791 C 16.2899 31.2272 15.5631 29.1409 15.4692 26.9795 L 15.4582 26.5003 L 15.4692 26.0211 C 15.5927 23.1784 16.8088 20.4932 18.8639 18.5253 C 20.919 16.5574 23.6545 15.4588 26.4998 15.4587 Z" stroke-linecap="round"/>
</g>
</svg>