<svg width="197.004" height="140.004" viewBox="0 0 197.004 140.004" xmlns="http://www.w3.org/2000/svg"><g id="svgGroup" stroke-linecap="round" fill-rule="evenodd" font-size="9pt" stroke="#000" stroke-width="0.25mm" fill="#000" style="stroke:#000;stroke-width:0.25mm;fill:#000"><path d="M 35.001 69 L 53.501 66 Q 66.501 66 76.751 74.75 A 28.183 28.183 0 0 1 85.898 90.119 A 43.714 43.714 0 0 1 87.001 100.25 A 42.102 42.102 0 0 1 84.165 115.908 A 38.819 38.819 0 0 1 76.001 128.5 A 36.004 36.004 0 0 1 57.795 138.641 A 54.551 54.551 0 0 1 45.251 140 A 42.273 42.273 0 0 1 26.745 136.012 A 42.376 42.376 0 0 1 12.751 125 A 52.385 52.385 0 0 1 1.382 100.935 A 74.446 74.446 0 0 1 0.001 86.25 A 66.861 66.861 0 0 1 6.435 58.135 Q 10.562 49.146 17.336 40.194 A 119.851 119.851 0 0 1 18.251 39 A 115.804 115.804 0 0 1 42.087 16.289 Q 54.564 7.266 70.501 0 L 74.001 8.5 Q 40.313 27.136 30.772 46.028 A 32.941 32.941 0 0 0 27.001 61 Q 27.001 67.348 32.038 68.659 A 11.786 11.786 0 0 0 35.001 69 Z M 145.001 69 L 163.501 66 Q 176.501 66 186.751 74.75 A 28.183 28.183 0 0 1 195.898 90.119 A 43.714 43.714 0 0 1 197.001 100.25 A 42.102 42.102 0 0 1 194.165 115.908 A 38.819 38.819 0 0 1 186.001 128.5 A 36.004 36.004 0 0 1 167.795 138.641 A 54.551 54.551 0 0 1 155.251 140 A 42.273 42.273 0 0 1 136.745 136.012 A 42.376 42.376 0 0 1 122.751 125 A 52.385 52.385 0 0 1 111.382 100.935 A 74.446 74.446 0 0 1 110.001 86.25 A 66.861 66.861 0 0 1 116.435 58.135 Q 120.562 49.146 127.336 40.194 A 119.851 119.851 0 0 1 128.251 39 A 115.804 115.804 0 0 1 152.087 16.289 Q 164.564 7.266 180.501 0 L 184.001 8.5 Q 150.313 27.136 140.772 46.028 A 32.941 32.941 0 0 0 137.001 61 Q 137.001 67.348 142.038 68.659 A 11.786 11.786 0 0 0 145.001 69 Z"/></g></svg>