<svg width="1119" height="2081" viewBox="0 0 1119 2081" fill="none" xmlns="http://www.w3.org/2000/svg">
<g opacity="0.5" clip-path="url(#clip0_1214_2264)">
<path d="M1218.19 1337.44V993.176L1599.47 885.283C1671.71 864.841 1721.58 798.891 1721.58 723.804V617.022C1721.58 611.229 1716.88 606.533 1711.09 606.533H1218.19V606.584H714.808V606.533H221.909C216.117 606.533 211.422 611.229 211.422 617.022V723.804C211.422 798.891 261.293 864.841 333.535 885.283L714.808 993.176L791.156 1014.8C854.182 1032.2 912.912 1059.51 965.398 1094.97C1118.2 1198 1218.19 1369.54 1218.19 1563.73V1337.44Z" fill="#3D6E7C" fill-opacity="0.81"/>
<path d="M1207.7 36.7422H725.294C719.502 36.7422 714.807 41.4381 714.807 47.2308V273.405C714.807 412.429 827.491 525.131 966.501 525.131C1105.5 525.131 1218.19 412.429 1218.19 273.405V47.2308C1218.19 41.4381 1213.49 36.7422 1207.7 36.7422Z" fill="#3D6E7C"/>
<path d="M1218.19 1563.71C1218.19 1369.53 1118.2 1197.98 965.398 1094.96C912.913 1059.5 854.183 1032.18 791.156 1014.79L714.807 993.161V1570.9C714.807 1579.03 717.167 1586.98 721.601 1593.79L957.711 1956.49C961.849 1962.85 971.152 1962.85 975.29 1956.49L1211.4 1593.79C1215.83 1586.98 1218.19 1579.03 1218.19 1570.9V1563.71Z" fill="#3D6E7C"/>
</g>
<defs>
<clipPath id="clip0_1214_2264">
<rect width="1119" height="2081" fill="white"/>
</clipPath>
</defs>
</svg>
